<?xml version="1.0" encoding="iso-8859-1"?>
<!-- Generator: Adobe Illustrator 16.0.0, SVG Export Plug-In . SVG Version: 6.00 Build 0)  -->
<!DOCTYPE svg PUBLIC "-//W3C//DTD SVG 1.1//EN" "http://www.w3.org/Graphics/SVG/1.1/DTD/svg11.dtd">
<svg version="1.1" id="Capa_1" xmlns="http://www.w3.org/2000/svg" xmlns:xlink="http://www.w3.org/1999/xlink" x="0px" y="0px"
	 width="75.446px" height="75.446px" viewBox="0 0 75.446 75.446" style="enable-background:new 0 0 75.446 75.446;"
	 xml:space="preserve">
<g>
	<path d="M67.1,19.377H8.497v36.789H67.1V19.377z M50.22,28.321h0.242c0.191,0.937,0.557,1.656,1.104,2.149
		c0.547,0.493,1.131,0.736,1.763,0.736c0.488,0,0.876-0.136,1.163-0.397c0.288-0.265,0.437-0.575,0.437-0.925
		c0-0.209-0.056-0.414-0.165-0.61c-0.113-0.196-0.278-0.381-0.506-0.553c-0.226-0.178-0.628-0.406-1.202-0.689
		c-0.803-0.392-1.378-0.729-1.733-1.012c-0.35-0.278-0.621-0.588-0.812-0.927c-0.187-0.346-0.278-0.724-0.278-1.135
		c0-0.704,0.253-1.301,0.771-1.799c0.521-0.5,1.168-0.742,1.957-0.742c0.287,0,0.565,0.037,0.832,0.105
		c0.201,0.049,0.452,0.149,0.744,0.292c0.292,0.137,0.502,0.209,0.615,0.209c0.117,0,0.201-0.038,0.27-0.104
		c0.063-0.069,0.128-0.239,0.183-0.502h0.191l0.073,2.947h-0.265c-0.128-0.738-0.438-1.331-0.931-1.785
		c-0.493-0.446-1.024-0.674-1.597-0.674c-0.447,0-0.799,0.118-1.054,0.354c-0.258,0.238-0.388,0.511-0.388,0.818
		c0,0.196,0.048,0.368,0.139,0.524c0.128,0.207,0.328,0.403,0.606,0.604c0.201,0.145,0.676,0.401,1.412,0.765
		c1.031,0.508,1.729,0.987,2.092,1.437c0.356,0.451,0.536,0.967,0.536,1.551c0,0.738-0.287,1.373-0.862,1.906
		c-0.572,0.53-1.31,0.8-2.192,0.8c-0.275,0-0.535-0.029-0.789-0.087c-0.244-0.054-0.554-0.164-0.928-0.32
		c-0.206-0.087-0.379-0.131-0.516-0.131c-0.116,0-0.235,0.044-0.356,0.131c-0.127,0.086-0.228,0.22-0.306,0.397h-0.244v-3.335H50.22
		V28.321z M36.7,22.62h3.831v0.237c-0.309,0.012-0.514,0.059-0.615,0.146c-0.105,0.081-0.154,0.192-0.154,0.315
		c0,0.163,0.105,0.517,0.319,1.049l1.733,4.289l1.388-3.35l-0.364-0.938c-0.196-0.512-0.352-0.853-0.456-1.026
		c-0.114-0.172-0.237-0.292-0.376-0.369c-0.145-0.073-0.348-0.109-0.628-0.109v-0.238h4.283v0.238
		c-0.301,0.004-0.52,0.027-0.643,0.072c-0.092,0.033-0.162,0.082-0.22,0.149c-0.05,0.073-0.072,0.152-0.072,0.243
		c0,0.1,0.096,0.406,0.292,0.925l1.605,4.184l1.441-3.791c0.151-0.388,0.242-0.656,0.278-0.798c0.037-0.145,0.048-0.274,0.048-0.397
		c0-0.178-0.057-0.323-0.175-0.423c-0.126-0.105-0.356-0.156-0.701-0.168V22.62h2.288v0.237c-0.162,0.017-0.301,0.059-0.415,0.14
		c-0.118,0.078-0.219,0.202-0.301,0.36c-0.027,0.049-0.16,0.388-0.415,1.009l-2.77,7.289h-0.251l-2.189-5.694l-2.41,5.694h-0.243
		l-2.905-7.208c-0.292-0.729-0.5-1.168-0.617-1.317c-0.119-0.154-0.314-0.243-0.593-0.268L36.7,22.62L36.7,22.62z M28.347,31.21
		h0.294c0.255,0,0.463-0.049,0.622-0.14c0.109-0.056,0.196-0.161,0.259-0.311c0.047-0.105,0.069-0.378,0.069-0.822v-5.809
		c0-0.403-0.009-0.648-0.033-0.736c-0.042-0.15-0.123-0.269-0.241-0.351c-0.166-0.123-0.39-0.182-0.677-0.182h-0.294v-0.238h7.397
		v2.606h-0.25c-0.123-0.636-0.301-1.095-0.53-1.374c-0.228-0.278-0.551-0.483-0.967-0.612c-0.245-0.081-0.702-0.119-1.368-0.119
		h-0.914v3.595h0.175c0.561,0,0.965-0.173,1.217-0.525c0.252-0.355,0.414-0.872,0.481-1.561h0.25v4.623h-0.25
		c-0.049-0.501-0.158-0.92-0.33-1.233c-0.167-0.327-0.359-0.537-0.582-0.647c-0.221-0.11-0.544-0.168-0.965-0.168v2.49
		c0,0.488,0.02,0.785,0.062,0.896c0.044,0.105,0.119,0.196,0.23,0.263c0.115,0.07,0.297,0.105,0.547,0.105h0.53
		c0.825,0,1.485-0.191,1.984-0.575c0.499-0.377,0.854-0.961,1.072-1.743h0.238l-0.395,2.806h-7.638v-0.241h0.005V31.21z
		 M19.035,31.21c0.483-0.004,0.827-0.101,1.016-0.296c0.194-0.196,0.287-0.533,0.287-0.999v-6.24l-0.189-0.234
		c-0.187-0.232-0.35-0.388-0.493-0.464c-0.145-0.07-0.35-0.114-0.622-0.125v-0.237h3.134l4.359,5.479v-3.8
		c0-0.531-0.075-0.89-0.231-1.077c-0.206-0.25-0.556-0.37-1.048-0.365v-0.237h2.922v0.237c-0.376,0.05-0.626,0.111-0.755,0.187
		c-0.127,0.078-0.229,0.201-0.299,0.37c-0.069,0.172-0.107,0.47-0.107,0.885v7.355h-0.223l-5.975-7.353v5.616
		c0,0.506,0.115,0.852,0.347,1.03c0.23,0.174,0.5,0.261,0.798,0.261h0.21v0.243h-3.134L19.035,31.21L19.035,31.21z M36.455,53.055
		H11.817v-1.865h24.638V53.055z M36.455,47.416h-24.65v-1.868h24.65V47.416z M36.455,41.777h-24.65v-1.87h24.65V41.777z
		 M63.628,53.055H38.992v-1.865h24.636V53.055z M63.628,47.416H38.992v-1.868h24.636V47.416z M63.628,41.777H38.992v-1.87h24.636
		V41.777z M63.701,36.134H11.744v-1.866h51.957V36.134z M72.762,11.684H2.686C1.204,11.684,0,12.884,0,14.365v46.717
		c0,1.482,1.206,2.681,2.686,2.681h70.076c1.482,0,2.685-1.202,2.685-2.681V14.365C75.446,12.88,74.244,11.684,72.762,11.684z
		 M70.074,58.399h-64.7V17.046h64.7V58.399z M72.762,41.072c-0.931,0-1.69-0.757-1.69-1.688c0-0.925,0.758-1.684,1.69-1.684
		c0.931,0,1.688,0.751,1.688,1.684C74.449,40.315,73.69,41.072,72.762,41.072z"/>
</g>
<g>
</g>
<g>
</g>
<g>
</g>
<g>
</g>
<g>
</g>
<g>
</g>
<g>
</g>
<g>
</g>
<g>
</g>
<g>
</g>
<g>
</g>
<g>
</g>
<g>
</g>
<g>
</g>
<g>
</g>
</svg>
